<mxfile host="app.diagrams.net" agent="Mozilla/5.0 (Windows NT 10.0; Win64; x64) AppleWebKit/537.36 (KHTML, like Gecko) Chrome/140.0.0.0 Safari/537.36 Edg/140.0.0.0" version="28.2.3">
  <diagram name="Trang-1" id="r350oSg30avbRg0hjhBW">
    <mxGraphModel grid="1" page="1" gridSize="10" guides="1" tooltips="1" connect="1" arrows="1" fold="1" pageScale="1" pageWidth="827" pageHeight="1169" math="0" shadow="0">
      <root>
        <mxCell id="0" />
        <mxCell id="1" parent="0" />
        <mxCell id="0Pn4dTXlt66p6LrH0FaB-34" value="" style="swimlane;childLayout=stackLayout;resizeParent=1;resizeParentMax=0;startSize=20;html=1;fontSize=18;" vertex="1" parent="1">
          <mxGeometry x="33" width="1820" height="1151" as="geometry" />
        </mxCell>
        <mxCell id="0Pn4dTXlt66p6LrH0FaB-71" style="edgeStyle=orthogonalEdgeStyle;rounded=0;orthogonalLoop=1;jettySize=auto;html=1;entryX=0.5;entryY=0;entryDx=0;entryDy=0;fontSize=18;" edge="1" parent="0Pn4dTXlt66p6LrH0FaB-34" source="0Pn4dTXlt66p6LrH0FaB-49" target="0Pn4dTXlt66p6LrH0FaB-70">
          <mxGeometry relative="1" as="geometry" />
        </mxCell>
        <mxCell id="0Pn4dTXlt66p6LrH0FaB-89" style="edgeStyle=orthogonalEdgeStyle;rounded=0;orthogonalLoop=1;jettySize=auto;html=1;entryX=1;entryY=0.5;entryDx=0;entryDy=0;exitX=1;exitY=0.5;exitDx=0;exitDy=0;fontSize=18;" edge="1" parent="0Pn4dTXlt66p6LrH0FaB-34" source="0Pn4dTXlt66p6LrH0FaB-91" target="0Pn4dTXlt66p6LrH0FaB-70">
          <mxGeometry relative="1" as="geometry">
            <Array as="points">
              <mxPoint x="1057" y="1006" />
              <mxPoint x="1057" y="250" />
            </Array>
          </mxGeometry>
        </mxCell>
        <mxCell id="Cwp31BBp4jtaESxhcxQR-2" value="" style="edgeStyle=orthogonalEdgeStyle;rounded=0;orthogonalLoop=1;jettySize=auto;html=1;fontSize=18;" edge="1" parent="0Pn4dTXlt66p6LrH0FaB-34" source="0Pn4dTXlt66p6LrH0FaB-49" target="Cwp31BBp4jtaESxhcxQR-1">
          <mxGeometry relative="1" as="geometry" />
        </mxCell>
        <mxCell id="0Pn4dTXlt66p6LrH0FaB-35" value="Người mua hàng" style="swimlane;startSize=20;html=1;fontSize=18;" vertex="1" parent="0Pn4dTXlt66p6LrH0FaB-34">
          <mxGeometry y="20" width="770" height="1131" as="geometry" />
        </mxCell>
        <mxCell id="0Pn4dTXlt66p6LrH0FaB-1" value="" style="ellipse;html=1;shape=startState;fillColor=#000000;strokeColor=#ff0000;fontSize=18;" vertex="1" parent="0Pn4dTXlt66p6LrH0FaB-35">
          <mxGeometry x="265" y="31" width="30" height="30" as="geometry" />
        </mxCell>
        <mxCell id="0Pn4dTXlt66p6LrH0FaB-53" style="edgeStyle=orthogonalEdgeStyle;rounded=0;orthogonalLoop=1;jettySize=auto;html=1;entryX=0.5;entryY=0;entryDx=0;entryDy=0;exitX=0.5;exitY=1;exitDx=0;exitDy=0;fontSize=18;" edge="1" parent="0Pn4dTXlt66p6LrH0FaB-35" source="0Pn4dTXlt66p6LrH0FaB-70" target="0Pn4dTXlt66p6LrH0FaB-30">
          <mxGeometry relative="1" as="geometry">
            <mxPoint x="280" y="220" as="sourcePoint" />
          </mxGeometry>
        </mxCell>
        <mxCell id="0Pn4dTXlt66p6LrH0FaB-56" style="edgeStyle=orthogonalEdgeStyle;rounded=0;orthogonalLoop=1;jettySize=auto;html=1;exitX=0.5;exitY=1;exitDx=0;exitDy=0;entryX=0.5;entryY=0;entryDx=0;entryDy=0;fontSize=18;" edge="1" parent="0Pn4dTXlt66p6LrH0FaB-35" source="0Pn4dTXlt66p6LrH0FaB-30" target="0Pn4dTXlt66p6LrH0FaB-61">
          <mxGeometry relative="1" as="geometry">
            <mxPoint x="279.9999999999998" y="360" as="targetPoint" />
          </mxGeometry>
        </mxCell>
        <mxCell id="0Pn4dTXlt66p6LrH0FaB-30" value="" style="rhombus;whiteSpace=wrap;html=1;fontColor=#000000;fillColor=#ffffc0;strokeColor=#ff0000;fontSize=18;" vertex="1" parent="0Pn4dTXlt66p6LrH0FaB-35">
          <mxGeometry x="250" y="290" width="60" height="30" as="geometry" />
        </mxCell>
        <mxCell id="0Pn4dTXlt66p6LrH0FaB-6" value="Lọc và sắp xếp sản phẩm" style="rounded=1;whiteSpace=wrap;html=1;arcSize=40;fontColor=#000000;fillColor=#ffffc0;strokeColor=#ff0000;fontSize=18;" vertex="1" parent="0Pn4dTXlt66p6LrH0FaB-35">
          <mxGeometry x="490" y="270" width="170" height="70" as="geometry" />
        </mxCell>
        <mxCell id="0Pn4dTXlt66p6LrH0FaB-31" value="" style="edgeStyle=orthogonalEdgeStyle;html=1;align=left;verticalAlign=top;endArrow=open;endSize=8;strokeColor=#ff0000;rounded=0;entryX=0;entryY=0.5;entryDx=0;entryDy=0;fontSize=18;" edge="1" parent="0Pn4dTXlt66p6LrH0FaB-35" source="0Pn4dTXlt66p6LrH0FaB-30" target="0Pn4dTXlt66p6LrH0FaB-6">
          <mxGeometry x="-0.999" y="-10" relative="1" as="geometry">
            <mxPoint x="490" y="381" as="targetPoint" />
            <mxPoint as="offset" />
          </mxGeometry>
        </mxCell>
        <mxCell id="Cwp31BBp4jtaESxhcxQR-57" style="edgeStyle=orthogonalEdgeStyle;rounded=0;orthogonalLoop=1;jettySize=auto;html=1;entryX=0.5;entryY=1;entryDx=0;entryDy=0;fontSize=18;" edge="1" parent="0Pn4dTXlt66p6LrH0FaB-35" source="0Pn4dTXlt66p6LrH0FaB-54" target="Cwp31BBp4jtaESxhcxQR-49">
          <mxGeometry relative="1" as="geometry" />
        </mxCell>
        <mxCell id="Cwp31BBp4jtaESxhcxQR-67" style="edgeStyle=orthogonalEdgeStyle;rounded=0;orthogonalLoop=1;jettySize=auto;html=1;entryX=0;entryY=0.5;entryDx=0;entryDy=0;exitX=0;exitY=0.5;exitDx=0;exitDy=0;fontSize=18;" edge="1" parent="0Pn4dTXlt66p6LrH0FaB-35" source="0Pn4dTXlt66p6LrH0FaB-54" target="Cwp31BBp4jtaESxhcxQR-66">
          <mxGeometry relative="1" as="geometry">
            <Array as="points" />
          </mxGeometry>
        </mxCell>
        <mxCell id="0Pn4dTXlt66p6LrH0FaB-54" value="Giỏ hàng" style="rounded=1;whiteSpace=wrap;html=1;arcSize=35;fontColor=#000000;fillColor=#ffffc0;strokeColor=#ff0000;fontSize=18;" vertex="1" parent="0Pn4dTXlt66p6LrH0FaB-35">
          <mxGeometry x="70" y="620" width="100" height="40" as="geometry" />
        </mxCell>
        <mxCell id="0Pn4dTXlt66p6LrH0FaB-7" value="" style="edgeStyle=orthogonalEdgeStyle;html=1;verticalAlign=bottom;endArrow=open;endSize=8;strokeColor=#ff0000;rounded=0;fontSize=18;entryX=1;entryY=0.5;entryDx=0;entryDy=0;" edge="1" parent="0Pn4dTXlt66p6LrH0FaB-35" source="0Pn4dTXlt66p6LrH0FaB-6" target="0Pn4dTXlt66p6LrH0FaB-61">
          <mxGeometry relative="1" as="geometry">
            <mxPoint x="280" y="340" as="targetPoint" />
            <Array as="points">
              <mxPoint x="530" y="375" />
            </Array>
          </mxGeometry>
        </mxCell>
        <mxCell id="Cwp31BBp4jtaESxhcxQR-64" style="edgeStyle=orthogonalEdgeStyle;rounded=0;orthogonalLoop=1;jettySize=auto;html=1;entryX=0.5;entryY=1;entryDx=0;entryDy=0;fontSize=18;" edge="1" parent="0Pn4dTXlt66p6LrH0FaB-35" source="0Pn4dTXlt66p6LrH0FaB-12" target="0Pn4dTXlt66p6LrH0FaB-54">
          <mxGeometry relative="1" as="geometry" />
        </mxCell>
        <mxCell id="0Pn4dTXlt66p6LrH0FaB-12" value="Mua hàng" style="rounded=1;whiteSpace=wrap;html=1;arcSize=40;fontColor=#000000;fillColor=#ffffc0;strokeColor=#ff0000;fontSize=18;" vertex="1" parent="0Pn4dTXlt66p6LrH0FaB-35">
          <mxGeometry x="220" y="760" width="120" height="40" as="geometry" />
        </mxCell>
        <mxCell id="0Pn4dTXlt66p6LrH0FaB-61" value="" style="rhombus;whiteSpace=wrap;html=1;fontColor=#000000;fillColor=#ffffc0;strokeColor=#ff0000;fontSize=18;" vertex="1" parent="0Pn4dTXlt66p6LrH0FaB-35">
          <mxGeometry x="250" y="360" width="60" height="30" as="geometry" />
        </mxCell>
        <mxCell id="0Pn4dTXlt66p6LrH0FaB-8" value="Trang chi tiết sản phẩm" style="rounded=1;whiteSpace=wrap;html=1;arcSize=40;fontColor=#000000;fillColor=#ffffc0;strokeColor=#ff0000;fontSize=18;" vertex="1" parent="0Pn4dTXlt66p6LrH0FaB-35">
          <mxGeometry x="390" y="410" width="140" height="50" as="geometry" />
        </mxCell>
        <mxCell id="0Pn4dTXlt66p6LrH0FaB-62" value="" style="edgeStyle=orthogonalEdgeStyle;html=1;align=left;verticalAlign=top;endArrow=open;endSize=8;strokeColor=#ff0000;rounded=0;fontSize=18;" edge="1" parent="0Pn4dTXlt66p6LrH0FaB-35" source="0Pn4dTXlt66p6LrH0FaB-61" target="0Pn4dTXlt66p6LrH0FaB-8">
          <mxGeometry x="-0.999" y="-10" relative="1" as="geometry">
            <mxPoint x="460" y="473" as="targetPoint" />
            <mxPoint as="offset" />
            <Array as="points">
              <mxPoint x="460" y="435" />
            </Array>
          </mxGeometry>
        </mxCell>
        <mxCell id="0Pn4dTXlt66p6LrH0FaB-9" value="" style="edgeStyle=orthogonalEdgeStyle;html=1;verticalAlign=bottom;endArrow=open;endSize=8;strokeColor=#ff0000;rounded=0;entryX=0.5;entryY=0;entryDx=0;entryDy=0;fontSize=18;" edge="1" parent="0Pn4dTXlt66p6LrH0FaB-35" source="0Pn4dTXlt66p6LrH0FaB-8" target="0Pn4dTXlt66p6LrH0FaB-65">
          <mxGeometry relative="1" as="geometry">
            <mxPoint x="459.9999999999998" y="520" as="targetPoint" />
          </mxGeometry>
        </mxCell>
        <mxCell id="Cwp31BBp4jtaESxhcxQR-42" style="edgeStyle=orthogonalEdgeStyle;rounded=0;orthogonalLoop=1;jettySize=auto;html=1;entryX=1;entryY=0.5;entryDx=0;entryDy=0;fontSize=18;" edge="1" parent="0Pn4dTXlt66p6LrH0FaB-35" source="0Pn4dTXlt66p6LrH0FaB-65" target="Cwp31BBp4jtaESxhcxQR-39">
          <mxGeometry relative="1" as="geometry" />
        </mxCell>
        <mxCell id="Cwp31BBp4jtaESxhcxQR-60" value="Thêm sản phẩm&amp;nbsp;&lt;div&gt;vào giỏ&lt;/div&gt;" style="edgeLabel;html=1;align=center;verticalAlign=middle;resizable=0;points=[];fontSize=18;" vertex="1" connectable="0" parent="Cwp31BBp4jtaESxhcxQR-42">
          <mxGeometry x="-0.1502" y="-6" relative="1" as="geometry">
            <mxPoint as="offset" />
          </mxGeometry>
        </mxCell>
        <mxCell id="Cwp31BBp4jtaESxhcxQR-55" style="edgeStyle=orthogonalEdgeStyle;rounded=0;orthogonalLoop=1;jettySize=auto;html=1;entryX=0;entryY=0.5;entryDx=0;entryDy=0;fontSize=18;" edge="1" parent="0Pn4dTXlt66p6LrH0FaB-35" source="0Pn4dTXlt66p6LrH0FaB-65" target="Cwp31BBp4jtaESxhcxQR-27">
          <mxGeometry relative="1" as="geometry" />
        </mxCell>
        <mxCell id="0Pn4dTXlt66p6LrH0FaB-65" value="" style="rhombus;whiteSpace=wrap;html=1;fontColor=#000000;fillColor=#ffffc0;strokeColor=#ff0000;fontSize=18;" vertex="1" parent="0Pn4dTXlt66p6LrH0FaB-35">
          <mxGeometry x="430" y="495" width="60" height="30" as="geometry" />
        </mxCell>
        <mxCell id="0Pn4dTXlt66p6LrH0FaB-11" value="" style="edgeStyle=orthogonalEdgeStyle;html=1;verticalAlign=bottom;endArrow=open;endSize=8;strokeColor=#ff0000;rounded=0;exitX=0.5;exitY=1;exitDx=0;exitDy=0;entryX=1;entryY=0.5;entryDx=0;entryDy=0;fontSize=18;" edge="1" parent="0Pn4dTXlt66p6LrH0FaB-35" source="0Pn4dTXlt66p6LrH0FaB-65" target="0Pn4dTXlt66p6LrH0FaB-12">
          <mxGeometry relative="1" as="geometry">
            <mxPoint x="460" y="691" as="targetPoint" />
            <mxPoint x="460" y="620" as="sourcePoint" />
          </mxGeometry>
        </mxCell>
        <mxCell id="Cwp31BBp4jtaESxhcxQR-53" value="Mua sản phẩm" style="edgeLabel;html=1;align=center;verticalAlign=middle;resizable=0;points=[];fontSize=18;" vertex="1" connectable="0" parent="0Pn4dTXlt66p6LrH0FaB-11">
          <mxGeometry x="-0.4329" y="4" relative="1" as="geometry">
            <mxPoint as="offset" />
          </mxGeometry>
        </mxCell>
        <mxCell id="0Pn4dTXlt66p6LrH0FaB-70" value="Trang danh mục sản phẩm" style="rounded=1;whiteSpace=wrap;html=1;arcSize=40;fontColor=#000000;fillColor=#ffffc0;strokeColor=#ff0000;fontSize=18;" vertex="1" parent="0Pn4dTXlt66p6LrH0FaB-35">
          <mxGeometry x="190" y="200" width="180" height="60" as="geometry" />
        </mxCell>
        <mxCell id="0Pn4dTXlt66p6LrH0FaB-72" value="Chọn lọc sắp xếp&amp;nbsp;&lt;div&gt;sản phẩm&lt;/div&gt;" style="text;html=1;align=center;verticalAlign=middle;resizable=0;points=[];autosize=1;strokeColor=none;fillColor=none;fontSize=18;" vertex="1" parent="0Pn4dTXlt66p6LrH0FaB-35">
          <mxGeometry x="304" y="277" width="170" height="60" as="geometry" />
        </mxCell>
        <mxCell id="0Pn4dTXlt66p6LrH0FaB-76" value="xem chi tiết&amp;nbsp;" style="text;html=1;align=center;verticalAlign=middle;resizable=0;points=[];autosize=1;strokeColor=none;fillColor=none;fontSize=18;" vertex="1" parent="0Pn4dTXlt66p6LrH0FaB-35">
          <mxGeometry x="255" y="405" width="120" height="40" as="geometry" />
        </mxCell>
        <mxCell id="Cwp31BBp4jtaESxhcxQR-73" style="edgeStyle=orthogonalEdgeStyle;rounded=0;orthogonalLoop=1;jettySize=auto;html=1;entryX=0.5;entryY=0;entryDx=0;entryDy=0;fontSize=18;" edge="1" parent="0Pn4dTXlt66p6LrH0FaB-35" source="0Pn4dTXlt66p6LrH0FaB-79" target="Cwp31BBp4jtaESxhcxQR-69">
          <mxGeometry relative="1" as="geometry" />
        </mxCell>
        <mxCell id="0Pn4dTXlt66p6LrH0FaB-79" value="Bảng tổng hợp" style="rounded=1;whiteSpace=wrap;html=1;arcSize=40;fontColor=#000000;fillColor=#ffffc0;strokeColor=#ff0000;fontSize=18;" vertex="1" parent="0Pn4dTXlt66p6LrH0FaB-35">
          <mxGeometry x="287" y="850" width="150" height="60" as="geometry" />
        </mxCell>
        <mxCell id="Cwp31BBp4jtaESxhcxQR-62" style="edgeStyle=orthogonalEdgeStyle;rounded=0;orthogonalLoop=1;jettySize=auto;html=1;entryX=1;entryY=0.75;entryDx=0;entryDy=0;fontSize=18;" edge="1" parent="0Pn4dTXlt66p6LrH0FaB-35" source="Cwp31BBp4jtaESxhcxQR-27" target="0Pn4dTXlt66p6LrH0FaB-70">
          <mxGeometry relative="1" as="geometry">
            <mxPoint x="599.9999999999998" y="230" as="targetPoint" />
            <Array as="points">
              <mxPoint x="687" y="245" />
            </Array>
          </mxGeometry>
        </mxCell>
        <mxCell id="Cwp31BBp4jtaESxhcxQR-63" value="Tiếp tục mua hàng" style="edgeLabel;html=1;align=center;verticalAlign=middle;resizable=0;points=[];fontSize=18;" vertex="1" connectable="0" parent="Cwp31BBp4jtaESxhcxQR-62">
          <mxGeometry x="-0.1935" y="-1" relative="1" as="geometry">
            <mxPoint x="9" y="117" as="offset" />
          </mxGeometry>
        </mxCell>
        <mxCell id="Cwp31BBp4jtaESxhcxQR-27" value="Đánh giá sản phẩm" style="rounded=1;whiteSpace=wrap;html=1;arcSize=40;fontColor=#000000;fillColor=#ffffc0;strokeColor=#ff0000;fontSize=18;" vertex="1" parent="0Pn4dTXlt66p6LrH0FaB-35">
          <mxGeometry x="610" y="480" width="140" height="60" as="geometry" />
        </mxCell>
        <mxCell id="Cwp31BBp4jtaESxhcxQR-44" style="edgeStyle=orthogonalEdgeStyle;rounded=0;orthogonalLoop=1;jettySize=auto;html=1;fontSize=18;" edge="1" parent="0Pn4dTXlt66p6LrH0FaB-35" source="Cwp31BBp4jtaESxhcxQR-39" target="0Pn4dTXlt66p6LrH0FaB-54">
          <mxGeometry relative="1" as="geometry" />
        </mxCell>
        <mxCell id="Cwp31BBp4jtaESxhcxQR-39" value="Cập nhật giỏ hàng" style="rounded=1;whiteSpace=wrap;html=1;arcSize=35;fontColor=#000000;fillColor=#ffffc0;strokeColor=#ff0000;fontSize=18;" vertex="1" parent="0Pn4dTXlt66p6LrH0FaB-35">
          <mxGeometry x="227" y="610" width="120" height="60" as="geometry" />
        </mxCell>
        <mxCell id="Cwp31BBp4jtaESxhcxQR-58" style="edgeStyle=orthogonalEdgeStyle;rounded=0;orthogonalLoop=1;jettySize=auto;html=1;entryX=0.5;entryY=0;entryDx=0;entryDy=0;fontSize=18;" edge="1" parent="0Pn4dTXlt66p6LrH0FaB-35" source="Cwp31BBp4jtaESxhcxQR-49" target="Cwp31BBp4jtaESxhcxQR-39">
          <mxGeometry relative="1" as="geometry">
            <mxPoint x="250" y="500" as="targetPoint" />
          </mxGeometry>
        </mxCell>
        <mxCell id="Cwp31BBp4jtaESxhcxQR-49" value="" style="rhombus;whiteSpace=wrap;html=1;fontColor=#000000;fillColor=#ffffc0;strokeColor=#ff0000;fontSize=18;" vertex="1" parent="0Pn4dTXlt66p6LrH0FaB-35">
          <mxGeometry x="80" y="480" width="80" height="40" as="geometry" />
        </mxCell>
        <mxCell id="0Pn4dTXlt66p6LrH0FaB-39" value="Thanh toán" style="rounded=1;whiteSpace=wrap;html=1;arcSize=40;fontColor=#000000;fillColor=#ffffc0;strokeColor=#ff0000;fontSize=18;" vertex="1" parent="0Pn4dTXlt66p6LrH0FaB-35">
          <mxGeometry x="490" y="860" width="120" height="40" as="geometry" />
        </mxCell>
        <mxCell id="Cwp31BBp4jtaESxhcxQR-59" value="Xóa sản phẩm khỏi giỏ" style="text;html=1;align=center;verticalAlign=middle;resizable=0;points=[];autosize=1;strokeColor=none;fillColor=none;fontSize=18;" vertex="1" parent="0Pn4dTXlt66p6LrH0FaB-35">
          <mxGeometry x="115" y="463" width="210" height="40" as="geometry" />
        </mxCell>
        <mxCell id="Cwp31BBp4jtaESxhcxQR-68" style="edgeStyle=orthogonalEdgeStyle;rounded=0;orthogonalLoop=1;jettySize=auto;html=1;entryX=0;entryY=0.5;entryDx=0;entryDy=0;fontSize=18;" edge="1" parent="0Pn4dTXlt66p6LrH0FaB-35" source="Cwp31BBp4jtaESxhcxQR-66" target="0Pn4dTXlt66p6LrH0FaB-79">
          <mxGeometry relative="1" as="geometry" />
        </mxCell>
        <mxCell id="Cwp31BBp4jtaESxhcxQR-66" value="Cập nhật bảng tổng hợp" style="rounded=1;whiteSpace=wrap;html=1;arcSize=40;fontColor=#000000;fillColor=#ffffc0;strokeColor=#ff0000;fontSize=18;" vertex="1" parent="0Pn4dTXlt66p6LrH0FaB-35">
          <mxGeometry x="70" y="850" width="130" height="60" as="geometry" />
        </mxCell>
        <mxCell id="Cwp31BBp4jtaESxhcxQR-69" value="" style="rhombus;whiteSpace=wrap;html=1;fontColor=#000000;fillColor=#ffffc0;strokeColor=#ff0000;fontSize=18;" vertex="1" parent="0Pn4dTXlt66p6LrH0FaB-35">
          <mxGeometry x="323" y="970" width="80" height="40" as="geometry" />
        </mxCell>
        <mxCell id="Cwp31BBp4jtaESxhcxQR-71" value="Tiếp tục xem danh mục sản phẩm" style="edgeStyle=orthogonalEdgeStyle;html=1;align=left;verticalAlign=top;endArrow=open;endSize=8;strokeColor=#ff0000;rounded=0;entryX=0;entryY=0.5;entryDx=0;entryDy=0;fontSize=18;exitX=0.5;exitY=1;exitDx=0;exitDy=0;" edge="1" parent="0Pn4dTXlt66p6LrH0FaB-35" source="Cwp31BBp4jtaESxhcxQR-69" target="0Pn4dTXlt66p6LrH0FaB-70">
          <mxGeometry x="-0.5834" y="-30" relative="1" as="geometry">
            <mxPoint x="190" y="1070" as="targetPoint" />
            <Array as="points">
              <mxPoint x="365" y="1070" />
              <mxPoint x="27" y="1070" />
              <mxPoint x="27" y="230" />
            </Array>
            <mxPoint x="1" as="offset" />
          </mxGeometry>
        </mxCell>
        <mxCell id="Cwp31BBp4jtaESxhcxQR-70" value="Thanh toán" style="edgeStyle=orthogonalEdgeStyle;html=1;align=left;verticalAlign=bottom;endArrow=open;endSize=8;strokeColor=#ff0000;rounded=0;entryX=0.5;entryY=1;entryDx=0;entryDy=0;fontSize=18;" edge="1" parent="0Pn4dTXlt66p6LrH0FaB-35" source="Cwp31BBp4jtaESxhcxQR-69" target="0Pn4dTXlt66p6LrH0FaB-39">
          <mxGeometry x="-0.3998" relative="1" as="geometry">
            <mxPoint x="510" y="990" as="targetPoint" />
            <mxPoint x="1" as="offset" />
          </mxGeometry>
        </mxCell>
        <mxCell id="Cwp31BBp4jtaESxhcxQR-56" value="Đánh giá" style="text;html=1;align=center;verticalAlign=middle;resizable=0;points=[];autosize=1;strokeColor=none;fillColor=none;fontSize=18;" vertex="1" parent="0Pn4dTXlt66p6LrH0FaB-35">
          <mxGeometry x="500" y="503" width="100" height="40" as="geometry" />
        </mxCell>
        <mxCell id="0Pn4dTXlt66p6LrH0FaB-36" value="Hệ thống" style="swimlane;startSize=20;html=1;fontSize=18;direction=south;" vertex="1" parent="0Pn4dTXlt66p6LrH0FaB-34">
          <mxGeometry x="770" y="20" width="510" height="1131" as="geometry" />
        </mxCell>
        <mxCell id="0Pn4dTXlt66p6LrH0FaB-41" value="" style="ellipse;html=1;shape=endState;fillColor=#000000;strokeColor=#ff0000;fontSize=18;" vertex="1" parent="0Pn4dTXlt66p6LrH0FaB-36">
          <mxGeometry x="145" y="1040" width="30" height="30" as="geometry" />
        </mxCell>
        <mxCell id="0Pn4dTXlt66p6LrH0FaB-49" value="Kiểm soát truy cập" style="rounded=1;whiteSpace=wrap;html=1;arcSize=40;fontColor=#000000;fillColor=#ffffc0;strokeColor=#ff0000;fontSize=18;" vertex="1" parent="0Pn4dTXlt66p6LrH0FaB-36">
          <mxGeometry x="120" y="146" width="140" height="70" as="geometry" />
        </mxCell>
        <mxCell id="0Pn4dTXlt66p6LrH0FaB-97" style="edgeStyle=orthogonalEdgeStyle;rounded=0;orthogonalLoop=1;jettySize=auto;html=1;entryX=0.5;entryY=0;entryDx=0;entryDy=0;fontSize=18;" edge="1" parent="0Pn4dTXlt66p6LrH0FaB-36" source="0Pn4dTXlt66p6LrH0FaB-91" target="0Pn4dTXlt66p6LrH0FaB-41">
          <mxGeometry relative="1" as="geometry" />
        </mxCell>
        <mxCell id="0Pn4dTXlt66p6LrH0FaB-91" value="Gửi email&amp;nbsp;" style="rounded=1;whiteSpace=wrap;html=1;arcSize=40;fontColor=#000000;fillColor=#ffffc0;strokeColor=#ff0000;fontSize=18;" vertex="1" parent="0Pn4dTXlt66p6LrH0FaB-36">
          <mxGeometry x="100" y="966" width="120" height="40" as="geometry" />
        </mxCell>
        <mxCell id="0Pn4dTXlt66p6LrH0FaB-95" style="edgeStyle=orthogonalEdgeStyle;rounded=0;orthogonalLoop=1;jettySize=auto;html=1;entryX=0.5;entryY=0;entryDx=0;entryDy=0;fontSize=18;" edge="1" parent="0Pn4dTXlt66p6LrH0FaB-36" source="0Pn4dTXlt66p6LrH0FaB-93" target="0Pn4dTXlt66p6LrH0FaB-91">
          <mxGeometry relative="1" as="geometry" />
        </mxCell>
        <mxCell id="0Pn4dTXlt66p6LrH0FaB-93" value="Xác thực thông tin, xử lí thanh toán" style="rounded=1;whiteSpace=wrap;html=1;arcSize=40;fontColor=#000000;fillColor=#ffffc0;strokeColor=#ff0000;fontSize=18;" vertex="1" parent="0Pn4dTXlt66p6LrH0FaB-36">
          <mxGeometry x="80" y="828" width="160" height="100" as="geometry" />
        </mxCell>
        <mxCell id="Cwp31BBp4jtaESxhcxQR-32" style="edgeStyle=orthogonalEdgeStyle;rounded=0;orthogonalLoop=1;jettySize=auto;html=1;entryX=1;entryY=0.5;entryDx=0;entryDy=0;fontSize=18;" edge="1" parent="0Pn4dTXlt66p6LrH0FaB-36" source="Cwp31BBp4jtaESxhcxQR-20" target="0Pn4dTXlt66p6LrH0FaB-41">
          <mxGeometry relative="1" as="geometry">
            <Array as="points">
              <mxPoint x="380" y="1055" />
            </Array>
          </mxGeometry>
        </mxCell>
        <mxCell id="Cwp31BBp4jtaESxhcxQR-20" value="Kích hoạt hoặc vô hiệu" style="rounded=1;whiteSpace=wrap;html=1;arcSize=50;fontColor=#000000;fillColor=#ffffc0;strokeColor=#ff0000;fontSize=18;" vertex="1" parent="0Pn4dTXlt66p6LrH0FaB-36">
          <mxGeometry x="300" y="580" width="150" height="70" as="geometry" />
        </mxCell>
        <mxCell id="Cwp31BBp4jtaESxhcxQR-37" style="edgeStyle=orthogonalEdgeStyle;rounded=0;orthogonalLoop=1;jettySize=auto;html=1;fontSize=18;" edge="1" parent="0Pn4dTXlt66p6LrH0FaB-36" source="Cwp31BBp4jtaESxhcxQR-35" target="0Pn4dTXlt66p6LrH0FaB-49">
          <mxGeometry relative="1" as="geometry" />
        </mxCell>
        <mxCell id="Cwp31BBp4jtaESxhcxQR-35" value="Đăng nhập" style="rounded=1;whiteSpace=wrap;html=1;arcSize=40;fontColor=#000000;fillColor=#ffffc0;strokeColor=#ff0000;fontSize=18;" vertex="1" parent="0Pn4dTXlt66p6LrH0FaB-36">
          <mxGeometry x="140" y="80" width="100" height="40" as="geometry" />
        </mxCell>
        <mxCell id="0Pn4dTXlt66p6LrH0FaB-90" value="Tiếp tục mua hàng" style="text;html=1;align=center;verticalAlign=middle;resizable=0;points=[];autosize=1;strokeColor=none;fillColor=none;fontSize=18;" vertex="1" parent="0Pn4dTXlt66p6LrH0FaB-36">
          <mxGeometry x="115" y="530" width="170" height="40" as="geometry" />
        </mxCell>
        <mxCell id="0Pn4dTXlt66p6LrH0FaB-43" value="Quản trị viên" style="swimlane;startSize=20;html=1;fontSize=18;" vertex="1" parent="0Pn4dTXlt66p6LrH0FaB-34">
          <mxGeometry x="1280" y="20" width="540" height="1131" as="geometry" />
        </mxCell>
        <mxCell id="0Pn4dTXlt66p6LrH0FaB-46" value="" style="ellipse;html=1;shape=endState;fillColor=#000000;strokeColor=#ff0000;fontSize=18;" vertex="1" parent="0Pn4dTXlt66p6LrH0FaB-43">
          <mxGeometry x="251" y="890" width="30" height="30" as="geometry" />
        </mxCell>
        <mxCell id="Cwp31BBp4jtaESxhcxQR-5" style="edgeStyle=orthogonalEdgeStyle;rounded=0;orthogonalLoop=1;jettySize=auto;html=1;fontSize=18;" edge="1" parent="0Pn4dTXlt66p6LrH0FaB-43" source="Cwp31BBp4jtaESxhcxQR-1">
          <mxGeometry relative="1" as="geometry">
            <mxPoint x="270" y="340" as="targetPoint" />
          </mxGeometry>
        </mxCell>
        <mxCell id="Cwp31BBp4jtaESxhcxQR-1" value="Trang quản trị" style="whiteSpace=wrap;html=1;fillColor=#ffffc0;strokeColor=#ff0000;fontColor=#000000;rounded=1;arcSize=40;fontSize=18;" vertex="1" parent="0Pn4dTXlt66p6LrH0FaB-43">
          <mxGeometry x="190" y="160" width="160" height="110" as="geometry" />
        </mxCell>
        <mxCell id="Cwp31BBp4jtaESxhcxQR-6" value="" style="endArrow=open;endFill=1;endSize=12;html=1;rounded=0;entryX=0.5;entryY=0;entryDx=0;entryDy=0;fontSize=18;" edge="1" parent="0Pn4dTXlt66p6LrH0FaB-43" target="Cwp31BBp4jtaESxhcxQR-18">
          <mxGeometry width="160" relative="1" as="geometry">
            <mxPoint x="280" y="340" as="sourcePoint" />
            <mxPoint x="370" y="420" as="targetPoint" />
          </mxGeometry>
        </mxCell>
        <mxCell id="Cwp31BBp4jtaESxhcxQR-24" value="" style="edgeStyle=orthogonalEdgeStyle;rounded=0;orthogonalLoop=1;jettySize=auto;html=1;fontSize=18;" edge="1" parent="0Pn4dTXlt66p6LrH0FaB-43" source="Cwp31BBp4jtaESxhcxQR-18" target="Cwp31BBp4jtaESxhcxQR-23">
          <mxGeometry relative="1" as="geometry" />
        </mxCell>
        <mxCell id="Cwp31BBp4jtaESxhcxQR-18" value="Tồn kho" style="rounded=1;whiteSpace=wrap;html=1;arcSize=40;fontColor=#000000;fillColor=#ffffc0;strokeColor=#ff0000;fontSize=18;" vertex="1" parent="0Pn4dTXlt66p6LrH0FaB-43">
          <mxGeometry x="350" y="440" width="130" height="63" as="geometry" />
        </mxCell>
        <mxCell id="Cwp31BBp4jtaESxhcxQR-26" value="" style="edgeStyle=orthogonalEdgeStyle;rounded=0;orthogonalLoop=1;jettySize=auto;html=1;fontSize=18;" edge="1" parent="0Pn4dTXlt66p6LrH0FaB-43" source="Cwp31BBp4jtaESxhcxQR-16" target="Cwp31BBp4jtaESxhcxQR-25">
          <mxGeometry relative="1" as="geometry" />
        </mxCell>
        <mxCell id="Cwp31BBp4jtaESxhcxQR-16" value="Quản lý sản phẩm" style="rounded=1;whiteSpace=wrap;html=1;arcSize=40;fontColor=#000000;fillColor=#ffffc0;strokeColor=#ff0000;fontSize=18;" vertex="1" parent="0Pn4dTXlt66p6LrH0FaB-43">
          <mxGeometry x="200" y="420" width="130" height="83" as="geometry" />
        </mxCell>
        <mxCell id="Cwp31BBp4jtaESxhcxQR-34" style="edgeStyle=orthogonalEdgeStyle;rounded=0;orthogonalLoop=1;jettySize=auto;html=1;entryX=1;entryY=0.5;entryDx=0;entryDy=0;fontSize=18;" edge="1" parent="0Pn4dTXlt66p6LrH0FaB-43" source="Cwp31BBp4jtaESxhcxQR-23" target="0Pn4dTXlt66p6LrH0FaB-46">
          <mxGeometry relative="1" as="geometry">
            <Array as="points">
              <mxPoint x="410" y="905" />
            </Array>
          </mxGeometry>
        </mxCell>
        <mxCell id="Cwp31BBp4jtaESxhcxQR-23" value="Quản lý kho hàng" style="rounded=1;whiteSpace=wrap;html=1;arcSize=40;fontColor=#000000;fillColor=#ffffc0;strokeColor=#ff0000;fontSize=18;" vertex="1" parent="0Pn4dTXlt66p6LrH0FaB-43">
          <mxGeometry x="350" y="560" width="130" height="70" as="geometry" />
        </mxCell>
        <mxCell id="Cwp31BBp4jtaESxhcxQR-33" style="edgeStyle=orthogonalEdgeStyle;rounded=0;orthogonalLoop=1;jettySize=auto;html=1;entryX=0.5;entryY=0;entryDx=0;entryDy=0;fontSize=18;" edge="1" parent="0Pn4dTXlt66p6LrH0FaB-43" source="Cwp31BBp4jtaESxhcxQR-25" target="0Pn4dTXlt66p6LrH0FaB-46">
          <mxGeometry relative="1" as="geometry" />
        </mxCell>
        <mxCell id="Cwp31BBp4jtaESxhcxQR-25" value="Gán sản phẩm vào kho hiện có" style="rounded=1;whiteSpace=wrap;html=1;arcSize=40;fontColor=#000000;fillColor=#ffffc0;strokeColor=#ff0000;fontSize=18;" vertex="1" parent="0Pn4dTXlt66p6LrH0FaB-43">
          <mxGeometry x="200" y="550" width="130" height="80" as="geometry" />
        </mxCell>
        <mxCell id="Cwp31BBp4jtaESxhcxQR-14" value="Xem giỏ hàng của người dùng" style="rounded=1;whiteSpace=wrap;html=1;arcSize=40;fontColor=#000000;fillColor=#ffffc0;strokeColor=#ff0000;fontSize=18;" vertex="1" parent="0Pn4dTXlt66p6LrH0FaB-43">
          <mxGeometry x="30" y="440" width="150" height="90" as="geometry" />
        </mxCell>
        <mxCell id="Cwp31BBp4jtaESxhcxQR-4" value="" style="endArrow=none;html=1;rounded=0;strokeWidth=3;fontSize=18;" edge="1" parent="0Pn4dTXlt66p6LrH0FaB-43">
          <mxGeometry width="50" height="50" relative="1" as="geometry">
            <mxPoint x="206" y="340" as="sourcePoint" />
            <mxPoint x="316" y="340" as="targetPoint" />
          </mxGeometry>
        </mxCell>
        <mxCell id="Cwp31BBp4jtaESxhcxQR-21" value="" style="edgeStyle=orthogonalEdgeStyle;rounded=0;orthogonalLoop=1;jettySize=auto;html=1;fontSize=18;" edge="1" parent="0Pn4dTXlt66p6LrH0FaB-34" source="Cwp31BBp4jtaESxhcxQR-14" target="Cwp31BBp4jtaESxhcxQR-20">
          <mxGeometry relative="1" as="geometry" />
        </mxCell>
        <mxCell id="Cwp31BBp4jtaESxhcxQR-36" style="edgeStyle=orthogonalEdgeStyle;rounded=0;orthogonalLoop=1;jettySize=auto;html=1;entryX=0.5;entryY=0;entryDx=0;entryDy=0;fontSize=18;" edge="1" parent="0Pn4dTXlt66p6LrH0FaB-34" source="0Pn4dTXlt66p6LrH0FaB-1" target="Cwp31BBp4jtaESxhcxQR-35">
          <mxGeometry relative="1" as="geometry" />
        </mxCell>
        <mxCell id="0Pn4dTXlt66p6LrH0FaB-94" value="" style="edgeStyle=orthogonalEdgeStyle;rounded=0;orthogonalLoop=1;jettySize=auto;html=1;fontSize=18;" edge="1" parent="0Pn4dTXlt66p6LrH0FaB-34" source="0Pn4dTXlt66p6LrH0FaB-39" target="0Pn4dTXlt66p6LrH0FaB-93">
          <mxGeometry relative="1" as="geometry" />
        </mxCell>
        <mxCell id="0Pn4dTXlt66p6LrH0FaB-98" value="Tài khoản người mua" style="text;html=1;align=center;verticalAlign=middle;resizable=0;points=[];autosize=1;strokeColor=none;fillColor=none;fontSize=18;" vertex="1" parent="1">
          <mxGeometry x="433" y="164" width="200" height="40" as="geometry" />
        </mxCell>
        <mxCell id="Cwp31BBp4jtaESxhcxQR-3" value="Tài khoản quản trị viên" style="text;html=1;align=center;verticalAlign=middle;resizable=0;points=[];autosize=1;strokeColor=none;fillColor=none;fontSize=18;" vertex="1" parent="1">
          <mxGeometry x="1080" y="164" width="210" height="40" as="geometry" />
        </mxCell>
        <mxCell id="Cwp31BBp4jtaESxhcxQR-12" value="" style="endArrow=open;endFill=1;endSize=12;html=1;rounded=0;entryX=0.5;entryY=0;entryDx=0;entryDy=0;fontSize=18;" edge="1" parent="1" target="Cwp31BBp4jtaESxhcxQR-14">
          <mxGeometry width="160" relative="1" as="geometry">
            <mxPoint x="1570" y="360" as="sourcePoint" />
            <mxPoint x="1163" y="460" as="targetPoint" />
          </mxGeometry>
        </mxCell>
        <mxCell id="Cwp31BBp4jtaESxhcxQR-13" value="" style="endArrow=open;endFill=1;endSize=12;html=1;rounded=0;entryX=0.5;entryY=0;entryDx=0;entryDy=0;fontSize=18;" edge="1" parent="1" target="Cwp31BBp4jtaESxhcxQR-16">
          <mxGeometry width="160" relative="1" as="geometry">
            <mxPoint x="1578" y="360" as="sourcePoint" />
            <mxPoint x="1323" y="480" as="targetPoint" />
          </mxGeometry>
        </mxCell>
      </root>
    </mxGraphModel>
  </diagram>
</mxfile>
